<svg xmlns="http://www.w3.org/2000/svg" width="24" height="24" viewBox="0 0 24 24">
  <g id="add" transform="translate(-110 -22)">
    <g id="Group_2" data-name="Group 2" transform="translate(110 22)">
      <path id="Path_3" data-name="Path 3" d="M19.714,0H4.286A4.291,4.291,0,0,0,0,4.286V19.714A4.291,4.291,0,0,0,4.286,24H19.714A4.291,4.291,0,0,0,24,19.714V4.286A4.291,4.291,0,0,0,19.714,0ZM16.286,12.857H12.857v3.429a.857.857,0,1,1-1.714,0V12.857H7.714a.857.857,0,1,1,0-1.714h3.429V7.714a.857.857,0,1,1,1.714,0v3.429h3.429a.857.857,0,1,1,0,1.714Z" fill="#fff"/>
    </g>
  </g>
</svg>
