<svg id="Group_171" data-name="Group 171" xmlns="http://www.w3.org/2000/svg" width="8.866" height="9.087" viewBox="0 0 8.866 9.087">
  <path id="Path_1999" data-name="Path 1999" d="M61,451.816a.266.266,0,0,0,.266.266h6.39a.266.266,0,0,0,.266-.266V451H61Z" transform="translate(-60.028 -442.995)" fill="#fff"/>
  <path id="Path_2000" data-name="Path 2000" d="M108.662,120A2.665,2.665,0,0,0,106,122.662v2.68h5.325v-2.68A2.665,2.665,0,0,0,108.662,120Z" transform="translate(-104.229 -117.87)" fill="#fff"/>
  <path id="Path_2001" data-name="Path 2001" d="M240.266,1.6a.266.266,0,0,0,.266-.266V.266a.266.266,0,0,0-.532,0V1.331A.266.266,0,0,0,240.266,1.6Z" transform="translate(-235.851)" fill="#fff"/>
  <path id="Path_2002" data-name="Path 2002" d="M105.449,38.06a.266.266,0,1,0,.461-.266l-.532-.922a.266.266,0,0,0-.461.266Z" transform="translate(-103.13 -36.087)" fill="#fff"/>
  <path id="Path_2003" data-name="Path 2003" d="M7.656,137.045a.266.266,0,0,0-.1-.364l-.922-.532a.266.266,0,0,0-.266.461l.922.532A.266.266,0,0,0,7.656,137.045Z" transform="translate(-6.237 -133.697)" fill="#fff"/>
  <path id="Path_2004" data-name="Path 2004" d="M347.246,38.157a.266.266,0,0,0,.364-.1l.532-.922a.266.266,0,0,0-.461-.266l-.532.922A.266.266,0,0,0,347.246,38.157Z" transform="translate(-341.063 -36.086)" fill="#fff"/>
  <path id="Path_2005" data-name="Path 2005" d="M425.214,136.247a.266.266,0,0,0-.364-.1l-.922.532a.266.266,0,0,0,.266.461l.922-.532A.266.266,0,0,0,425.214,136.247Z" transform="translate(-416.384 -133.698)" fill="#fff"/>
</svg>
