<svg id="Component_17_4" data-name="Component 17 – 4" xmlns="http://www.w3.org/2000/svg" width="16" height="16" viewBox="0 0 16 16">
  <g id="hẹn_giờ" data-name="hẹn giờ">
    <g id="Path_1992" data-name="Path 1992" fill="#d6d5d5">
      <path d="M8,0A8,8,0,1,1,0,8,8,8,0,0,1,8,0Z" stroke="none"/>
      <path d="M 8 1 C 4.140190124511719 1 1 4.140190124511719 1 8 C 1 11.85980987548828 4.140190124511719 15 8 15 C 11.85980987548828 15 15 11.85980987548828 15 8 C 15 4.140190124511719 11.85980987548828 1 8 1 M 8 0 C 12.41827964782715 0 16 3.581720352172852 16 8 C 16 12.41827964782715 12.41827964782715 16 8 16 C 3.581720352172852 16 0 12.41827964782715 0 8 C 0 3.581720352172852 3.581720352172852 0 8 0 Z" stroke="none" fill="rgba(221,226,233,0.68)"/>
    </g>
    <g id="alert" transform="translate(4.027 3.085)">
      <g id="Group_173" data-name="Group 173">
        <g id="Group_171" data-name="Group 171">
          <path id="Path_1999" data-name="Path 1999" d="M61,451.816a.266.266,0,0,0,.266.266h6.39a.266.266,0,0,0,.266-.266V451H61Z" transform="translate(-60.028 -442.995)" fill="#fff"/>
          <path id="Path_2000" data-name="Path 2000" d="M108.662,120A2.665,2.665,0,0,0,106,122.662v2.68h5.325v-2.68A2.665,2.665,0,0,0,108.662,120Z" transform="translate(-104.229 -117.87)" fill="#fff"/>
          <path id="Path_2001" data-name="Path 2001" d="M240.266,1.6a.266.266,0,0,0,.266-.266V.266a.266.266,0,0,0-.532,0V1.331A.266.266,0,0,0,240.266,1.6Z" transform="translate(-235.851)" fill="#fff"/>
          <path id="Path_2002" data-name="Path 2002" d="M105.449,38.06a.266.266,0,1,0,.461-.266l-.532-.922a.266.266,0,0,0-.461.266Z" transform="translate(-103.13 -36.087)" fill="#fff"/>
          <path id="Path_2003" data-name="Path 2003" d="M7.656,137.045a.266.266,0,0,0-.1-.364l-.922-.532a.266.266,0,0,0-.266.461l.922.532A.266.266,0,0,0,7.656,137.045Z" transform="translate(-6.237 -133.697)" fill="#fff"/>
          <path id="Path_2004" data-name="Path 2004" d="M347.246,38.157a.266.266,0,0,0,.364-.1l.532-.922a.266.266,0,0,0-.461-.266l-.532.922A.266.266,0,0,0,347.246,38.157Z" transform="translate(-341.063 -36.086)" fill="#fff"/>
          <path id="Path_2005" data-name="Path 2005" d="M425.214,136.247a.266.266,0,0,0-.364-.1l-.922.532a.266.266,0,0,0,.266.461l.922-.532A.266.266,0,0,0,425.214,136.247Z" transform="translate(-416.384 -133.698)" fill="#fff"/>
        </g>
      </g>
    </g>
  </g>
</svg>
