<svg id="Group_169" data-name="Group 169" xmlns="http://www.w3.org/2000/svg" width="6.794" height="8.153" viewBox="0 0 6.794 8.153">
  <path id="Path_1997" data-name="Path 1997" d="M8.583,5.745A2.275,2.275,0,0,1,7.775,4V3.057A2.38,2.38,0,0,0,5.737.707V.34a.34.34,0,1,0-.679,0V.707A2.379,2.379,0,0,0,3.019,3.057V4a2.278,2.278,0,0,1-.811,1.744.594.594,0,0,0,.387,1.046H8.2a.594.594,0,0,0,.384-1.049Z" transform="translate(-2 0)" fill="#fff"/>
  <path id="Path_1998" data-name="Path 1998" d="M9.574,22.019A1.276,1.276,0,0,0,10.822,21h-2.5A1.276,1.276,0,0,0,9.574,22.019Z" transform="translate(-6.177 -13.867)" fill="#fff"/>
</svg>
